<svg viewBox="0 0 140 40" xmlns="http://www.w3.org/2000/svg" xmlns:xlink="http://www.w3.org/1999/xlink" width="140.000000" height="40.000000" fill="none" customFrame="#000000">
	<g id="Group 2">
		<path id="GoCorona" d="M51.462 26.2351C49.734 26.2351 48.384 25.8151 47.412 24.9751C46.44 24.1231 45.924 22.9171 45.864 21.3571C45.852 21.0091 45.846 20.4571 45.846 19.7011C45.846 18.9451 45.852 18.3931 45.864 18.0451C45.924 16.5211 46.446 15.3451 47.43 14.5171C48.426 13.6891 49.77 13.2751 51.462 13.2751C52.602 13.2751 53.592 13.4611 54.432 13.8331C55.284 14.2051 55.932 14.6791 56.376 15.2551C56.832 15.8311 57.072 16.4251 57.096 17.0371C57.096 17.1451 57.054 17.2351 56.97 17.3071C56.898 17.3791 56.808 17.4151 56.7 17.4151L54.072 17.4151C53.952 17.4151 53.856 17.3971 53.784 17.3611C53.712 17.3251 53.652 17.2591 53.604 17.1631C53.448 16.8151 53.202 16.5151 52.866 16.2631C52.53 15.9991 52.062 15.8671 51.462 15.8671C50.034 15.8671 49.284 16.6231 49.212 18.1351C49.2 18.4711 49.194 18.9931 49.194 19.7011C49.194 20.3971 49.2 20.9191 49.212 21.2671C49.284 22.8511 50.052 23.6431 51.516 23.6431C52.224 23.6431 52.788 23.4631 53.208 23.1031C53.64 22.7311 53.856 22.1671 53.856 21.4111L53.856 21.0691L52.164 21.0691C52.032 21.0691 51.924 21.0271 51.84 20.9431C51.756 20.8471 51.714 20.7331 51.714 20.6011L51.714 19.2691C51.714 19.1371 51.756 19.0291 51.84 18.9451C51.924 18.8491 52.032 18.8011 52.164 18.8011L56.7 18.8011C56.832 18.8011 56.94 18.8491 57.024 18.9451C57.108 19.0291 57.15 19.1371 57.15 19.2691L57.15 21.3211C57.15 22.3411 56.916 23.2231 56.448 23.9671C55.98 24.6991 55.314 25.2631 54.45 25.6591C53.598 26.0431 52.602 26.2351 51.462 26.2351ZM63.4451 26.2351C61.9571 26.2351 60.8111 25.8811 60.0071 25.1731C59.2031 24.4651 58.7651 23.4691 58.6931 22.1851C58.6811 22.0291 58.6751 21.7591 58.6751 21.3751C58.6751 20.9911 58.6811 20.7211 58.6931 20.5651C58.7651 19.2931 59.2151 18.3031 60.0431 17.5951C60.8711 16.8751 62.0051 16.5151 63.4451 16.5151C64.8971 16.5151 66.0371 16.8751 66.8651 17.5951C67.6931 18.3031 68.1431 19.2931 68.2151 20.5651C68.2271 20.7211 68.2331 20.9911 68.2331 21.3751C68.2331 21.7591 68.2271 22.0291 68.2151 22.1851C68.1431 23.4691 67.7051 24.4651 66.9011 25.1731C66.0971 25.8811 64.9451 26.2351 63.4451 26.2351ZM63.4451 24.0391C63.9731 24.0391 64.3631 23.8831 64.6151 23.5711C64.8671 23.2471 65.0111 22.7551 65.0471 22.0951C65.0591 21.9751 65.0651 21.7351 65.0651 21.3751C65.0651 21.0151 65.0591 20.7751 65.0471 20.6551C65.0111 20.0071 64.8611 19.5211 64.5971 19.1971C64.3451 18.8731 63.9611 18.7111 63.4451 18.7111C62.4491 18.7111 61.9211 19.3591 61.8611 20.6551L61.8431 21.3751L61.8611 22.0951C61.8851 22.7551 62.0231 23.2471 62.2751 23.5711C62.5391 23.8831 62.9291 24.0391 63.4451 24.0391Z" fill="rgb(0,0,0)" fill-rule="nonzero" />
		<path id="GoCorona" d="M75.385 26.2351C73.669 26.2351 72.325 25.8211 71.353 24.9931C70.393 24.1531 69.883 22.9411 69.823 21.3571C69.811 21.0331 69.805 20.5051 69.805 19.7731C69.805 19.0291 69.811 18.4891 69.823 18.1531C69.883 16.5931 70.405 15.3931 71.389 14.5531C72.373 13.7011 73.705 13.2751 75.385 13.2751C76.441 13.2751 77.389 13.4551 78.229 13.8151C79.069 14.1631 79.729 14.6671 80.209 15.3271C80.701 15.9751 80.953 16.7371 80.965 17.6131L80.965 17.6491C80.965 17.7451 80.923 17.8291 80.839 17.9011C80.767 17.9611 80.683 17.9911 80.587 17.9911L78.157 17.9911C78.001 17.9911 77.881 17.9611 77.797 17.9011C77.713 17.8291 77.641 17.7031 77.581 17.5231C77.413 16.9111 77.149 16.4851 76.789 16.2451C76.429 15.9931 75.955 15.8671 75.367 15.8671C73.951 15.8671 73.219 16.6591 73.171 18.2431C73.159 18.5671 73.153 19.0651 73.153 19.7371C73.153 20.4091 73.159 20.9191 73.171 21.2671C73.219 22.8511 73.951 23.6431 75.367 23.6431C75.955 23.6431 76.435 23.5171 76.807 23.2651C77.179 23.0011 77.437 22.5751 77.581 21.9871C77.629 21.8071 77.695 21.6871 77.779 21.6271C77.863 21.5551 77.989 21.5191 78.157 21.5191L80.587 21.5191C80.695 21.5191 80.785 21.5551 80.857 21.6271C80.941 21.6991 80.977 21.7891 80.965 21.8971C80.953 22.7731 80.701 23.5411 80.209 24.2011C79.729 24.8491 79.069 25.3531 78.229 25.7131C77.389 26.0611 76.441 26.2351 75.385 26.2351ZM87.0877 26.2351C85.5997 26.2351 84.4537 25.8811 83.6497 25.1731C82.8457 24.4651 82.4077 23.4691 82.3357 22.1851C82.3237 22.0291 82.3177 21.7591 82.3177 21.3751C82.3177 20.9911 82.3237 20.7211 82.3357 20.5651C82.4077 19.2931 82.8577 18.3031 83.6857 17.5951C84.5137 16.8751 85.6477 16.5151 87.0877 16.5151C88.5397 16.5151 89.6797 16.8751 90.5077 17.5951C91.3357 18.3031 91.7857 19.2931 91.8577 20.5651C91.8697 20.7211 91.8757 20.9911 91.8757 21.3751C91.8757 21.7591 91.8697 22.0291 91.8577 22.1851C91.7857 23.4691 91.3477 24.4651 90.5437 25.1731C89.7397 25.8811 88.5877 26.2351 87.0877 26.2351ZM87.0877 24.0391C87.6157 24.0391 88.0057 23.8831 88.2577 23.5711C88.5097 23.2471 88.6537 22.7551 88.6897 22.0951C88.7017 21.9751 88.7077 21.7351 88.7077 21.3751C88.7077 21.0151 88.7017 20.7751 88.6897 20.6551C88.6537 20.0071 88.5037 19.5211 88.2397 19.1971C87.9877 18.8731 87.6037 18.7111 87.0877 18.7111C86.0917 18.7111 85.5637 19.3591 85.5037 20.6551L85.4857 21.3751L85.5037 22.0951C85.5277 22.7551 85.6657 23.2471 85.9177 23.5711C86.1817 23.8831 86.5717 24.0391 87.0877 24.0391ZM94.1136 26.0551C93.9816 26.0551 93.8736 26.0131 93.7896 25.9291C93.7056 25.8451 93.6636 25.7371 93.6636 25.6051L93.6636 17.1451C93.6636 17.0131 93.7056 16.9051 93.7896 16.8211C93.8736 16.7371 93.9816 16.6951 94.1136 16.6951L96.1836 16.6951C96.3156 16.6951 96.4236 16.7431 96.5076 16.8391C96.6036 16.9231 96.6516 17.0251 96.6516 17.1451L96.6516 17.8651C97.3116 17.0851 98.1996 16.6951 99.3156 16.6951L100.108 16.6951C100.24 16.6951 100.348 16.7371 100.432 16.8211C100.516 16.9051 100.558 17.0131 100.558 17.1451L100.558 18.9991C100.558 19.1191 100.516 19.2271 100.432 19.3231C100.348 19.4071 100.24 19.4491 100.108 19.4491L98.3616 19.4491C97.8696 19.4491 97.4856 19.5871 97.2096 19.8631C96.9456 20.1271 96.8136 20.5051 96.8136 20.9971L96.8136 25.6051C96.8136 25.7371 96.7656 25.8451 96.6696 25.9291C96.5856 26.0131 96.4776 26.0551 96.3456 26.0551L94.1136 26.0551ZM106.178 26.2351C104.689 26.2351 103.544 25.8811 102.74 25.1731C101.936 24.4651 101.497 23.4691 101.425 22.1851C101.413 22.0291 101.408 21.7591 101.408 21.3751C101.408 20.9911 101.413 20.7211 101.425 20.5651C101.497 19.2931 101.947 18.3031 102.775 17.5951C103.604 16.8751 104.738 16.5151 106.178 16.5151C107.63 16.5151 108.77 16.8751 109.598 17.5951C110.425 18.3031 110.876 19.2931 110.948 20.5651C110.96 20.7211 110.965 20.9911 110.965 21.3751C110.965 21.7591 110.96 22.0291 110.948 22.1851C110.876 23.4691 110.438 24.4651 109.633 25.1731C108.829 25.8811 107.678 26.2351 106.178 26.2351ZM106.178 24.0391C106.706 24.0391 107.096 23.8831 107.348 23.5711C107.6 23.2471 107.743 22.7551 107.779 22.0951C107.792 21.9751 107.798 21.7351 107.798 21.3751C107.798 21.0151 107.792 20.7751 107.779 20.6551C107.743 20.0071 107.594 19.5211 107.329 19.1971C107.077 18.8731 106.693 18.7111 106.178 18.7111C105.182 18.7111 104.654 19.3591 104.593 20.6551L104.576 21.3751L104.593 22.0951C104.618 22.7551 104.756 23.2471 105.007 23.5711C105.271 23.8831 105.661 24.0391 106.178 24.0391ZM113.203 26.0551C113.071 26.0551 112.963 26.0131 112.879 25.9291C112.795 25.8451 112.753 25.7371 112.753 25.6051L112.753 17.1451C112.753 17.0131 112.795 16.9051 112.879 16.8211C112.963 16.7371 113.071 16.6951 113.203 16.6951L115.273 16.6951C115.405 16.6951 115.513 16.7371 115.597 16.8211C115.693 16.9051 115.741 17.0131 115.741 17.1451L115.741 17.8291C116.065 17.4331 116.479 17.1151 116.983 16.8751C117.499 16.6351 118.081 16.5151 118.729 16.5151C119.785 16.5151 120.643 16.8751 121.303 17.5951C121.963 18.3031 122.293 19.2991 122.293 20.5831L122.293 25.6051C122.293 25.7251 122.251 25.8331 122.167 25.9291C122.083 26.0131 121.975 26.0551 121.843 26.0551L119.575 26.0551C119.455 26.0551 119.347 26.0131 119.251 25.9291C119.167 25.8331 119.125 25.7251 119.125 25.6051L119.125 20.6911C119.125 20.1271 118.987 19.6951 118.711 19.3951C118.435 19.0831 118.039 18.9271 117.523 18.9271C117.019 18.9271 116.623 19.0831 116.335 19.3951C116.047 19.6951 115.903 20.1271 115.903 20.6911L115.903 25.6051C115.903 25.7251 115.861 25.8331 115.777 25.9291C115.693 26.0131 115.585 26.0551 115.453 26.0551L113.203 26.0551ZM127.128 26.2351C126.492 26.2351 125.91 26.1151 125.382 25.8751C124.866 25.6231 124.458 25.2871 124.158 24.8671C123.87 24.4351 123.726 23.9611 123.726 23.4451C123.726 22.6171 124.062 21.9511 124.734 21.4471C125.418 20.9431 126.354 20.5951 127.542 20.4031L129.792 20.0611L129.792 19.8091C129.792 19.3531 129.696 19.0171 129.504 18.8011C129.312 18.5851 128.988 18.4771 128.532 18.4771C128.256 18.4771 128.028 18.5251 127.848 18.6211C127.668 18.7171 127.482 18.8491 127.29 19.0171C127.122 19.1611 126.996 19.2571 126.912 19.3051C126.876 19.4011 126.81 19.4491 126.714 19.4491L124.752 19.4491C124.632 19.4491 124.53 19.4131 124.446 19.3411C124.374 19.2571 124.344 19.1611 124.356 19.0531C124.368 18.7291 124.524 18.3691 124.824 17.9731C125.136 17.5771 125.604 17.2351 126.228 16.9471C126.864 16.6591 127.644 16.5151 128.568 16.5151C130.044 16.5151 131.136 16.8451 131.844 17.5051C132.552 18.1531 132.906 19.0291 132.906 20.1331L132.906 25.6051C132.906 25.7251 132.864 25.8331 132.78 25.9291C132.696 26.0131 132.588 26.0551 132.456 26.0551L130.368 26.0551C130.248 26.0551 130.14 26.0131 130.044 25.9291C129.96 25.8331 129.918 25.7251 129.918 25.6051L129.918 24.9751C129.654 25.3471 129.282 25.6531 128.802 25.8931C128.334 26.1211 127.776 26.2351 127.128 26.2351ZM127.974 24.1831C128.526 24.1831 128.97 24.0031 129.306 23.6431C129.654 23.2831 129.828 22.7551 129.828 22.0591L129.828 21.8071L128.298 22.0771C127.218 22.2691 126.678 22.6471 126.678 23.2111C126.678 23.5111 126.804 23.7511 127.056 23.9311C127.308 24.0991 127.614 24.1831 127.974 24.1831Z" fill="rgb(0,0,0)" fill-rule="nonzero" />
		<path id="GoCorona" d="M75.385 26.2351C73.669 26.2351 72.325 25.8211 71.353 24.9931C70.393 24.1531 69.883 22.9411 69.823 21.3571C69.811 21.0331 69.805 20.5051 69.805 19.7731C69.805 19.0291 69.811 18.4891 69.823 18.1531C69.883 16.5931 70.405 15.3931 71.389 14.5531C72.373 13.7011 73.705 13.2751 75.385 13.2751C76.441 13.2751 77.389 13.4551 78.229 13.8151C79.069 14.1631 79.729 14.6671 80.209 15.3271C80.701 15.9751 80.953 16.7371 80.965 17.6131L80.965 17.6491C80.965 17.7451 80.923 17.8291 80.839 17.9011C80.767 17.9611 80.683 17.9911 80.587 17.9911L78.157 17.9911C78.001 17.9911 77.881 17.9611 77.797 17.9011C77.713 17.8291 77.641 17.7031 77.581 17.5231C77.413 16.9111 77.149 16.4851 76.789 16.2451C76.429 15.9931 75.955 15.8671 75.367 15.8671C73.951 15.8671 73.219 16.6591 73.171 18.2431C73.159 18.5671 73.153 19.0651 73.153 19.7371C73.153 20.4091 73.159 20.9191 73.171 21.2671C73.219 22.8511 73.951 23.6431 75.367 23.6431C75.955 23.6431 76.435 23.5171 76.807 23.2651C77.179 23.0011 77.437 22.5751 77.581 21.9871C77.629 21.8071 77.695 21.6871 77.779 21.6271C77.863 21.5551 77.989 21.5191 78.157 21.5191L80.587 21.5191C80.695 21.5191 80.785 21.5551 80.857 21.6271C80.941 21.6991 80.977 21.7891 80.965 21.8971C80.953 22.7731 80.701 23.5411 80.209 24.2011C79.729 24.8491 79.069 25.3531 78.229 25.7131C77.389 26.0611 76.441 26.2351 75.385 26.2351ZM87.0877 26.2351C85.5997 26.2351 84.4537 25.8811 83.6497 25.1731C82.8457 24.4651 82.4077 23.4691 82.3357 22.1851C82.3237 22.0291 82.3177 21.7591 82.3177 21.3751C82.3177 20.9911 82.3237 20.7211 82.3357 20.5651C82.4077 19.2931 82.8577 18.3031 83.6857 17.5951C84.5137 16.8751 85.6477 16.5151 87.0877 16.5151C88.5397 16.5151 89.6797 16.8751 90.5077 17.5951C91.3357 18.3031 91.7857 19.2931 91.8577 20.5651C91.8697 20.7211 91.8757 20.9911 91.8757 21.3751C91.8757 21.7591 91.8697 22.0291 91.8577 22.1851C91.7857 23.4691 91.3477 24.4651 90.5437 25.1731C89.7397 25.8811 88.5877 26.2351 87.0877 26.2351ZM87.0877 24.0391C87.6157 24.0391 88.0057 23.8831 88.2577 23.5711C88.5097 23.2471 88.6537 22.7551 88.6897 22.0951C88.7017 21.9751 88.7077 21.7351 88.7077 21.3751C88.7077 21.0151 88.7017 20.7751 88.6897 20.6551C88.6537 20.0071 88.5037 19.5211 88.2397 19.1971C87.9877 18.8731 87.6037 18.7111 87.0877 18.7111C86.0917 18.7111 85.5637 19.3591 85.5037 20.6551L85.4857 21.3751L85.5037 22.0951C85.5277 22.7551 85.6657 23.2471 85.9177 23.5711C86.1817 23.8831 86.5717 24.0391 87.0877 24.0391ZM94.1136 26.0551C93.9816 26.0551 93.8736 26.0131 93.7896 25.9291C93.7056 25.8451 93.6636 25.7371 93.6636 25.6051L93.6636 17.1451C93.6636 17.0131 93.7056 16.9051 93.7896 16.8211C93.8736 16.7371 93.9816 16.6951 94.1136 16.6951L96.1836 16.6951C96.3156 16.6951 96.4236 16.7431 96.5076 16.8391C96.6036 16.9231 96.6516 17.0251 96.6516 17.1451L96.6516 17.8651C97.3116 17.0851 98.1996 16.6951 99.3156 16.6951L100.108 16.6951C100.24 16.6951 100.348 16.7371 100.432 16.8211C100.516 16.9051 100.558 17.0131 100.558 17.1451L100.558 18.9991C100.558 19.1191 100.516 19.2271 100.432 19.3231C100.348 19.4071 100.24 19.4491 100.108 19.4491L98.3616 19.4491C97.8696 19.4491 97.4856 19.5871 97.2096 19.8631C96.9456 20.1271 96.8136 20.5051 96.8136 20.9971L96.8136 25.6051C96.8136 25.7371 96.7656 25.8451 96.6696 25.9291C96.5856 26.0131 96.4776 26.0551 96.3456 26.0551L94.1136 26.0551ZM106.178 26.2351C104.689 26.2351 103.544 25.8811 102.74 25.1731C101.936 24.4651 101.497 23.4691 101.425 22.1851C101.413 22.0291 101.408 21.7591 101.408 21.3751C101.408 20.9911 101.413 20.7211 101.425 20.5651C101.497 19.2931 101.947 18.3031 102.775 17.5951C103.604 16.8751 104.738 16.5151 106.178 16.5151C107.63 16.5151 108.77 16.8751 109.598 17.5951C110.425 18.3031 110.876 19.2931 110.948 20.5651C110.96 20.7211 110.965 20.9911 110.965 21.3751C110.965 21.7591 110.96 22.0291 110.948 22.1851C110.876 23.4691 110.438 24.4651 109.633 25.1731C108.829 25.8811 107.678 26.2351 106.178 26.2351ZM106.178 24.0391C106.706 24.0391 107.096 23.8831 107.348 23.5711C107.6 23.2471 107.743 22.7551 107.779 22.0951C107.792 21.9751 107.798 21.7351 107.798 21.3751C107.798 21.0151 107.792 20.7751 107.779 20.6551C107.743 20.0071 107.594 19.5211 107.329 19.1971C107.077 18.8731 106.693 18.7111 106.178 18.7111C105.182 18.7111 104.654 19.3591 104.593 20.6551L104.576 21.3751L104.593 22.0951C104.618 22.7551 104.756 23.2471 105.007 23.5711C105.271 23.8831 105.661 24.0391 106.178 24.0391ZM113.203 26.0551C113.071 26.0551 112.963 26.0131 112.879 25.9291C112.795 25.8451 112.753 25.7371 112.753 25.6051L112.753 17.1451C112.753 17.0131 112.795 16.9051 112.879 16.8211C112.963 16.7371 113.071 16.6951 113.203 16.6951L115.273 16.6951C115.405 16.6951 115.513 16.7371 115.597 16.8211C115.693 16.9051 115.741 17.0131 115.741 17.1451L115.741 17.8291C116.065 17.4331 116.479 17.1151 116.983 16.8751C117.499 16.6351 118.081 16.5151 118.729 16.5151C119.785 16.5151 120.643 16.8751 121.303 17.5951C121.963 18.3031 122.293 19.2991 122.293 20.5831L122.293 25.6051C122.293 25.7251 122.251 25.8331 122.167 25.9291C122.083 26.0131 121.975 26.0551 121.843 26.0551L119.575 26.0551C119.455 26.0551 119.347 26.0131 119.251 25.9291C119.167 25.8331 119.125 25.7251 119.125 25.6051L119.125 20.6911C119.125 20.1271 118.987 19.6951 118.711 19.3951C118.435 19.0831 118.039 18.9271 117.523 18.9271C117.019 18.9271 116.623 19.0831 116.335 19.3951C116.047 19.6951 115.903 20.1271 115.903 20.6911L115.903 25.6051C115.903 25.7251 115.861 25.8331 115.777 25.9291C115.693 26.0131 115.585 26.0551 115.453 26.0551L113.203 26.0551ZM127.128 26.2351C126.492 26.2351 125.91 26.1151 125.382 25.8751C124.866 25.6231 124.458 25.2871 124.158 24.8671C123.87 24.4351 123.726 23.9611 123.726 23.4451C123.726 22.6171 124.062 21.9511 124.734 21.4471C125.418 20.9431 126.354 20.5951 127.542 20.4031L129.792 20.0611L129.792 19.8091C129.792 19.3531 129.696 19.0171 129.504 18.8011C129.312 18.5851 128.988 18.4771 128.532 18.4771C128.256 18.4771 128.028 18.5251 127.848 18.6211C127.668 18.7171 127.482 18.8491 127.29 19.0171C127.122 19.1611 126.996 19.2571 126.912 19.3051C126.876 19.4011 126.81 19.4491 126.714 19.4491L124.752 19.4491C124.632 19.4491 124.53 19.4131 124.446 19.3411C124.374 19.2571 124.344 19.1611 124.356 19.0531C124.368 18.7291 124.524 18.3691 124.824 17.9731C125.136 17.5771 125.604 17.2351 126.228 16.9471C126.864 16.6591 127.644 16.5151 128.568 16.5151C130.044 16.5151 131.136 16.8451 131.844 17.5051C132.552 18.1531 132.906 19.0291 132.906 20.1331L132.906 25.6051C132.906 25.7251 132.864 25.8331 132.78 25.9291C132.696 26.0131 132.588 26.0551 132.456 26.0551L130.368 26.0551C130.248 26.0551 130.14 26.0131 130.044 25.9291C129.96 25.8331 129.918 25.7251 129.918 25.6051L129.918 24.9751C129.654 25.3471 129.282 25.6531 128.802 25.8931C128.334 26.1211 127.776 26.2351 127.128 26.2351ZM127.974 24.1831C128.526 24.1831 128.97 24.0031 129.306 23.6431C129.654 23.2831 129.828 22.7551 129.828 22.0591L129.828 21.8071L128.298 22.0771C127.218 22.2691 126.678 22.6471 126.678 23.2111C126.678 23.5111 126.804 23.7511 127.056 23.9311C127.308 24.0991 127.614 24.1831 127.974 24.1831Z" fill="rgb(236,88,99)" fill-rule="nonzero" />
		<g id="Group 1">
			<g id="Group">
				<g id="XMLID 107">
					<g id="Group">
						<path id="Vector" d="M31.6982 14.3316C31.814 15.8373 30.7599 17.1739 29.3445 17.3166C28.2609 17.4257 27.2807 16.8031 26.8279 15.8307L25.5434 15.9444L24.5737 16.4145C24.3519 16.5217 24.2027 16.7347 24.1686 16.9793C24.077 17.6387 23.9108 18.2739 23.6798 18.8774C23.6013 19.0819 23.6151 19.31 23.7217 19.5007L24.0672 20.1214L25.0278 20.769C25.5343 20.5744 26.1238 20.621 26.6087 20.9478C27.4305 21.5021 27.6275 22.6428 27.0163 23.4456C26.4903 24.1372 25.512 24.3272 24.7674 23.8828C24.293 23.6001 24.0064 23.1306 23.9363 22.629L22.8717 21.9117L22.2017 21.8295C21.9713 21.8012 21.7423 21.8808 21.5748 22.0419C21.0095 22.583 20.3708 23.0478 19.6766 23.4199C19.443 23.5448 19.2931 23.7848 19.2768 24.0498L19.1917 25.4134L19.6131 27.0932C20.3302 27.2944 20.9231 27.8658 21.1181 28.6429C21.4125 29.8178 20.6862 31.0098 19.5018 31.2748C18.4333 31.5141 17.3373 30.8882 16.9977 29.8421C16.7333 29.0256 16.9761 28.1814 17.5349 27.6297L17.1115 25.94L16.4578 24.8841C16.2825 24.6007 15.9723 24.4331 15.6399 24.4337C15.6379 24.4337 15.6366 24.4337 15.6347 24.4337C15.0621 24.4337 14.502 24.3765 13.9602 24.2694C13.6376 24.2049 13.3045 24.3075 13.0781 24.5475L12.2144 25.4634L11.2473 27.4792C11.4737 27.9414 11.494 28.4996 11.2545 28.9999C10.8239 29.8967 9.72593 30.2531 8.84845 29.7573C8.09726 29.3319 7.77205 28.3931 8.09923 27.5909C8.32236 27.0439 8.78498 26.6784 9.30846 26.5561L10.2815 24.5271L10.4725 23.1655C10.5072 22.9143 10.4117 22.6612 10.2154 22.5021C9.44129 21.8709 8.77778 21.1089 8.25889 20.2489C8.12998 20.0352 7.89834 19.9057 7.64969 19.9037L6.29651 19.8906L4.81507 20.3587C4.71103 21.2844 4.08024 22.1069 3.13929 22.4041C1.8751 22.8039 0.528452 22.1056 0.118178 20.8433C-0.292097 19.5816 0.400855 18.2015 1.65523 17.7847C2.53337 17.4928 3.45599 17.7354 4.08024 18.3317L5.65263 17.8347L6.80101 17.0122C6.97179 16.8905 7.06274 16.6867 7.04573 16.4776C7.02675 16.2456 7.01694 16.0115 7.01694 15.7748C7.01694 14.4888 7.29831 13.2679 7.80085 12.1699C7.87413 12.0088 7.87217 11.8234 7.79496 11.6643L7.4547 10.9654L6.53142 10.2652C6.01448 10.4315 5.42884 10.3519 4.96295 9.99889C4.1725 9.39927 4.03901 8.24935 4.69336 7.48207C5.25675 6.82131 6.24416 6.68587 6.96328 7.17109C7.42133 7.4801 7.68175 7.964 7.72363 8.46894L8.74703 9.24476L9.77828 9.42951C10.5288 8.7293 11.4037 8.1619 12.3649 7.76413L12.607 6.28613L12.3014 4.75947C11.3971 4.52541 10.663 3.82914 10.4653 2.90079C10.1866 1.58913 11.0837 0.311651 12.4696 0.0480041C13.8548 -0.215643 15.2041 0.633157 15.4829 1.94482C15.6916 2.92643 15.2421 3.88831 14.4215 4.42087L14.7101 5.86074L15.4187 6.99686C15.4652 7.07115 15.5463 7.11586 15.6334 7.11586L15.6347 7.11586C17.2574 7.11586 18.7768 7.56952 20.0744 8.35717C20.1457 8.39991 20.2334 8.40583 20.3087 8.37032L21.4184 7.85355L22.714 6.44523C22.6362 5.94029 22.7795 5.40511 23.1518 5.00076C23.8245 4.27031 24.9761 4.2519 25.671 4.98235C26.2802 5.62339 26.3038 6.64576 25.7253 7.31507C25.351 7.74835 24.8138 7.94822 24.289 7.90877L22.9934 9.31709L22.5727 10.4545C22.5432 10.5334 22.5563 10.6215 22.6054 10.6899C23.1164 11.3947 23.5241 12.1797 23.8055 13.0226C23.8833 13.254 24.0666 13.4342 24.3008 13.5006L25.3543 13.7971L26.7232 13.6755C27.0589 12.7031 27.8971 11.9674 28.9264 11.8635C30.3417 11.7208 31.583 12.826 31.6982 14.3316Z" fill="rgb(236,88,99)" fill-rule="nonzero" transform="matrix(-0.260152,-0.965568,0.966281,-0.257491,8.61879,39.2857)" />
					</g>
				</g>
				<g id="XMLID 8">
					<g id="Group">
						<path id="Vector" d="M6.38117 12.8234C9.9054 12.8234 12.7623 9.95278 12.7623 6.41169C12.7623 2.87061 9.9054 0 6.38117 0C2.85695 0 0 2.87061 0 6.41169C0 9.95278 2.85695 12.8234 6.38117 12.8234Z" fill="rgb(245,138,151)" fill-rule="evenodd" transform="matrix(-0.260152,-0.965568,0.966281,-0.257491,15.2589,27.9399)" />
					</g>
				</g>
				<path id="Vector" d="M1.94497 6.41169C1.94497 3.20276 4.29093 0.544521 7.35366 0.0739659C7.03656 0.025247 6.71181 0 6.38117 0C2.85687 0 0 2.87053 0 6.41169C0 9.95285 2.85687 12.8234 6.38117 12.8234C6.71181 12.8234 7.03656 12.7981 7.35366 12.7494C4.291 12.2788 1.94497 9.62057 1.94497 6.41169Z" fill="rgb(240,114,129)" fill-rule="nonzero" transform="matrix(-0.260152,-0.965568,0.966281,-0.257491,15.2589,27.9399)" />
				<g id="Group">
					<path id="Vector" d="M1.81718 3.65175C2.82078 3.65175 3.63436 2.83428 3.63436 1.82587C3.63436 0.817472 2.82078 0 1.81718 0C0.81358 0 0 0.817472 0 1.82587C0 2.83428 0.81358 3.65175 1.81718 3.65175Z" fill="rgb(235,85,105)" fill-rule="evenodd" transform="matrix(-0.260152,-0.965568,0.966281,-0.257491,8.26816,36.1909)" />
					<path id="Vector" d="M1.20027 2.41201C1.86315 2.41201 2.40053 1.87206 2.40053 1.206C2.40053 0.539946 1.86315 0 1.20027 0C0.537377 0 0 0.539946 0 1.206C0 1.87206 0.537377 2.41201 1.20027 2.41201Z" fill="rgb(235,85,105)" fill-rule="evenodd" transform="matrix(-0.260152,-0.965568,0.966281,-0.257491,32.0921,29.7179)" />
					<path id="Vector" d="M1.76791 3.55273C2.7443 3.55273 3.53582 2.75743 3.53582 1.77637C3.53582 0.795306 2.7443 0 1.76791 0C0.791521 0 0 0.795306 0 1.77637C0 2.75743 0.791521 3.55273 1.76791 3.55273Z" fill="rgb(235,85,105)" fill-rule="evenodd" transform="matrix(-0.260152,-0.965568,0.966281,-0.257491,27.8699,8.62396)" />
					<path id="Vector" d="M1.64823 3.31223C2.55852 3.31223 3.29646 2.57076 3.29646 1.65611C3.29646 0.741468 2.55852 0 1.64823 0C0.737938 0 0 0.741468 0 1.65611C0 2.57076 0.737938 3.31223 1.64823 3.31223Z" fill="rgb(235,85,105)" fill-rule="evenodd" transform="matrix(-0.260152,-0.965568,0.966281,-0.257491,17.4237,24.492)" />
					<path id="Vector" d="M1.12188 2.25448C1.74147 2.25448 2.24375 1.7498 2.24375 1.12724C2.24375 0.504681 1.74147 0 1.12188 0C0.502281 0 0 0.504681 0 1.12724C0 1.7498 0.502281 2.25448 1.12188 2.25448Z" fill="rgb(235,85,105)" fill-rule="evenodd" transform="matrix(-0.260152,-0.965568,0.966281,-0.257491,22.4242,21.2455)" />
					<path id="Vector" d="M0.942062 1.89313C1.46235 1.89313 1.88412 1.46934 1.88412 0.946567C1.88412 0.423793 1.46235 0 0.942062 0C0.421775 0 0 0.423793 0 0.946567C0 1.46934 0.421775 1.89313 0.942062 1.89313Z" fill="rgb(235,85,105)" fill-rule="evenodd" transform="matrix(-0.260152,-0.965568,0.966281,-0.257491,18.3736,18.4932)" />
				</g>
			</g>
			<rect id="Rectangle 1" width="40.220993" height="40.000000" x="0.000000" y="0.000000" />
		</g>
	</g>
</svg>
