<svg viewBox="0 0 64.2857 72" xmlns="http://www.w3.org/2000/svg" xmlns:xlink="http://www.w3.org/1999/xlink" width="64.285721" height="72.000000" fill="none" customFrame="#000000">
	<path id="Vector" d="M64.2857 25.2L42.8571 25.2L42.8571 72L35.7143 72L35.7143 50.4L28.5714 50.4L28.5714 72L21.4286 72L21.4286 25.2L0 25.2L0 18L64.2857 18L64.2857 25.2ZM32.1429 0C34.0373 1.59872e-15 35.8541 0.758569 37.1936 2.10883C38.5332 3.45909 39.2857 5.29044 39.2857 7.2C39.2857 9.10956 38.5332 10.9409 37.1936 12.2912C35.8541 13.6414 34.0373 14.4 32.1429 14.4C30.2485 14.4 28.4316 13.6414 27.0921 12.2912C25.7526 10.9409 25 9.10956 25 7.2C25 3.204 28.1786 0 32.1429 0Z" fill="rgb(236,88,99)" fill-rule="nonzero" />
</svg>
